<svg xmlns="http://www.w3.org/2000/svg" width="500" height="500" style="width:100%;height:100%;transform:translate3d(0,0,0);content-visibility:visible" viewBox="0 0 500 500"><defs><clipPath id="k"><path d="M0 0h500v500H0z"/></clipPath><clipPath id="p"><path d="M0 0h500v500H0z"/></clipPath><clipPath id="q"><path d="M0 0h500v500H0z"/></clipPath><clipPath id="l"><path d="M0 0h500v500H0z"/></clipPath><clipPath id="i"><path d="M0 0h500v500H0z"/></clipPath><clipPath id="m"><path d="M0 0h500v500H0z"/></clipPath><clipPath id="j"><path d="M0 0h500v500H0z"/></clipPath><filter id="a" width="100%" height="100%" x="0%" y="0%" filterUnits="objectBoundingBox"><feComponentTransfer in="SourceGraphic"><feFuncA tableValues="1.0 0.0" type="table"/></feComponentTransfer></filter><filter id="c" width="100%" height="100%" x="0%" y="0%" filterUnits="objectBoundingBox"><feComponentTransfer in="SourceGraphic"><feFuncA tableValues="1.0 0.0" type="table"/></feComponentTransfer></filter><filter id="e" width="100%" height="100%" x="0%" y="0%" filterUnits="objectBoundingBox"><feComponentTransfer in="SourceGraphic"><feFuncA tableValues="1.0 0.0" type="table"/></feComponentTransfer></filter><filter id="g" width="100%" height="100%" x="0%" y="0%" filterUnits="objectBoundingBox"><feComponentTransfer in="SourceGraphic"><feFuncA tableValues="1.0 0.0" type="table"/></feComponentTransfer></filter><mask id="s" mask-type="alpha"><g filter="url(#a)"><path fill="#fff" d="M0 0h500v500H0z" opacity="0"/><use xmlns:ns1="http://www.w3.org/1999/xlink" ns1:href="#b"/></g></mask><mask id="r" mask-type="alpha"><g filter="url(#c)"><path fill="#fff" d="M0 0h500v500H0z" opacity="0"/><use xmlns:ns2="http://www.w3.org/1999/xlink" ns2:href="#d"/></g></mask><mask id="o" mask-type="alpha"><g filter="url(#e)"><path fill="#fff" d="M0 0h500v500H0z" opacity="0"/><use xmlns:ns3="http://www.w3.org/1999/xlink" ns3:href="#f"/></g></mask><mask id="n" mask-type="alpha"><g filter="url(#g)"><path fill="#fff" d="M0 0h500v500H0z" opacity="0"/><use xmlns:ns4="http://www.w3.org/1999/xlink" ns4:href="#h"/></g></mask><g id="d" class="primary design" style="display:none"><path fill-opacity="0" stroke-linecap="round" stroke-linejoin="round"/><path fill-opacity="0" stroke-linecap="round" stroke-linejoin="round"/><path fill-opacity="0" stroke-linecap="round" stroke-linejoin="round"/><path fill-opacity="0" stroke-linecap="round" stroke-linejoin="round"/><path/></g><g id="b" class="primary design" style="display:none"><path fill-opacity="0" stroke-linecap="round" stroke-linejoin="round"/><path/></g><g id="h" clip-path="url(#i)" style="display:none"><g class="primary design" style="display:none"><path fill-opacity="0" stroke-linecap="round" stroke-linejoin="round"/><path fill-opacity="0" stroke-linecap="round" stroke-linejoin="round"/><path fill-opacity="0" stroke-linecap="round" stroke-linejoin="round"/><path/><path fill-opacity="0" stroke-linecap="round" stroke-linejoin="round"/></g><g class="primary design" style="display:none"><path fill-opacity="0" stroke-linecap="round" stroke-linejoin="round"/><path fill-opacity="0" stroke-linecap="round" stroke-linejoin="round"/><path/></g><path fill-opacity="0" stroke-linecap="round" stroke-linejoin="round" class="primary design" style="display:none"/></g><g id="f" clip-path="url(#j)" style="display:none"><g class="primary design" style="display:none"><path/><path fill-opacity="0" stroke-linecap="round" stroke-linejoin="round"/></g><g class="primary design" style="display:none"><path/><path fill-opacity="0" stroke-linecap="round" stroke-linejoin="round"/></g></g></defs><g clip-path="url(#k)"><g clip-path="url(#l)" style="display:block"><g clip-path="url(#m)" mask="url(#n)" style="display:none"><g class="primary design" mask="url(#o)" style="display:none"><path/><path fill="none"/><path fill="none"/></g><g class="primary design" style="display:none"><path/><path fill="none"/></g><g class="primary design" style="display:none"><path/><path fill="none"/></g></g><path fill="#121330" d="M6.025-10.25h-12c-1.1 0-2 .9-2 2v16c0 1.1.9 2 2 2h12c1.1 0 2-.9 2-2v-16c0-1.1-.9-2-2-2zm-11 3.12c0-.62.5-1.12 1.12-1.12h2.76c.62 0 1.12.5 1.12 1.12v2.76c0 .62-.5 1.12-1.12 1.12h-2.76c-.62 0-1.12-.5-1.12-1.12v-2.76zm4.12 14.89h-3.36c-.42 0-.75-.34-.75-.75 0-.42.33-.75.75-.75h3.36c.42 0 .76.33.76.75 0 .41-.34.75-.76.75zm5.1-3.51h-8.5c-.42 0-.75-.33-.75-.75 0-.41.33-.75.75-.75h8.5a.749.749 0 1 1 0 1.5zm0-3.5h-8.49c-.41 0-.75-.34-.75-.75s.34-.75.75-.75h8.49c.41 0 .75.34.75.75s-.34.75-.75.75z" class="primary design" style="display:block" transform="translate(249.48 255.483) scale(20.83)"/><path class="primary design" style="display:none"/></g><g clip-path="url(#p)" opacity="0" style="display:block"><g clip-path="url(#q)" mask="url(#r)" style="display:none"><g class="primary design" mask="url(#s)" style="display:none"><path/><path fill="none"/></g><g class="primary design" style="display:none"><path fill="none"/><path/></g></g><path class="primary design" style="display:none"/></g><g class="com" style="display:none"><path/><path/><path/><path/><path/><path/><path/><path/><path/><path/><path/><path/></g></g></svg>